<svg width="24" height="24" viewBox="0 0 24 24" fill="none" xmlns="http://www.w3.org/2000/svg">
<g clip-path="url(#clip0_77_3110)">
<path d="M21 24.0005H19V18.9575C18.9992 18.1735 18.6874 17.4218 18.133 16.8675C17.5787 16.3131 16.827 16.0013 16.043 16.0005H7.957C7.173 16.0013 6.42134 16.3131 5.86696 16.8675C5.31259 17.4218 5.00079 18.1735 5 18.9575V24.0005H3V18.9575C3.00159 17.6433 3.52435 16.3834 4.45363 15.4541C5.3829 14.5248 6.64281 14.0021 7.957 14.0005H16.043C17.3572 14.0021 18.6171 14.5248 19.5464 15.4541C20.4756 16.3834 20.9984 17.6433 21 18.9575V24.0005Z" fill="#374957"/>
<path d="M11.9999 11.9999C10.8133 11.9999 9.65322 11.648 8.66652 10.9887C7.67983 10.3294 6.91079 9.39234 6.45666 8.29598C6.00254 7.19963 5.88372 5.99323 6.11523 4.82934C6.34674 3.66545 6.91819 2.59635 7.7573 1.75724C8.59642 0.918125 9.66551 0.34668 10.8294 0.115169C11.9933 -0.116342 13.1997 0.00247765 14.296 0.456603C15.3924 0.910729 16.3295 1.67976 16.9888 2.66646C17.648 3.65315 17.9999 4.81319 17.9999 5.99988C17.9984 7.59069 17.3657 9.11589 16.2408 10.2408C15.116 11.3656 13.5908 11.9983 11.9999 11.9999ZM11.9999 1.99988C11.2088 1.99988 10.4355 2.23448 9.77766 2.674C9.11987 3.11353 8.60717 3.73824 8.30442 4.46915C8.00167 5.20005 7.92246 6.00432 8.0768 6.78024C8.23114 7.55617 8.6121 8.2689 9.17151 8.82831C9.73093 9.38772 10.4437 9.76868 11.2196 9.92302C11.9955 10.0774 12.7998 9.99815 13.5307 9.6954C14.2616 9.39265 14.8863 8.87996 15.3258 8.22216C15.7653 7.56436 15.9999 6.79101 15.9999 5.99988C15.9999 4.93901 15.5785 3.9216 14.8284 3.17145C14.0782 2.42131 13.0608 1.99988 11.9999 1.99988Z" fill="#374957"/>
</g>
<defs>
<clipPath id="clip0_77_3110">
<rect width="24" height="24" fill="white"/>
</clipPath>
</defs>
</svg>
