<svg width="34" height="40" viewBox="0 0 34 40" fill="none" xmlns="http://www.w3.org/2000/svg">
<path d="M17 0.0707397C12.5899 0.0755916 8.36179 1.82953 5.24322 4.94779C2.12465 8.06605 0.370284 12.294 0.36499 16.7041C0.36499 20.9874 3.68166 27.6907 10.2233 36.6274C11.0021 37.6943 12.0218 38.5622 13.1993 39.1606C14.3769 39.7589 15.6791 40.0708 17 40.0708C18.3209 40.0708 19.6231 39.7589 20.8007 39.1606C21.9782 38.5622 22.9979 37.6943 23.7767 36.6274C30.3183 27.6907 33.635 20.9874 33.635 16.7041C33.6297 12.294 31.8753 8.06605 28.7568 4.94779C25.6382 1.82953 21.4101 0.0755916 17 0.0707397ZM17 23.3341C15.6814 23.3341 14.3925 22.9431 13.2962 22.2105C12.1999 21.478 11.3454 20.4368 10.8408 19.2186C10.3362 18.0005 10.2042 16.66 10.4614 15.3668C10.7187 14.0736 11.3536 12.8857 12.2859 11.9534C13.2183 11.021 14.4062 10.3861 15.6994 10.1288C16.9926 9.8716 18.333 10.0036 19.5512 10.5082C20.7694 11.0128 21.8106 11.8673 22.5431 12.9636C23.2757 14.0599 23.6667 15.3489 23.6667 16.6674C23.6667 18.4355 22.9643 20.1312 21.714 21.3815C20.4638 22.6317 18.7681 23.3341 17 23.3341Z" fill="#374957"/>
</svg>
